<svg id="Layer_1" enable-background="new 0 0 512 512" height="512" viewBox="0 0 512 512" width="512" xmlns="http://www.w3.org/2000/svg"><g><g><g><g id="XMLID_1270_"><g id="XMLID_1271_"><g id="XMLID_1272_"><g id="XMLID_1273_"><g id="XMLID_1274_"><g id="XMLID_1275_"><g id="XMLID_1276_"><g id="XMLID_1277_"><g id="XMLID_1278_"><g id="XMLID_1279_"><g id="XMLID_1280_"><g id="XMLID_1281_"><g id="XMLID_1282_"><g id="XMLID_1283_"><g id="XMLID_1284_"><circle cx="256" cy="256" fill="#655665" r="256"/></g></g></g></g></g></g></g></g></g></g></g></g></g></g></g></g></g><path d="m117.327 403.955 105.975 105.975c10.707 1.365 21.62 2.07 32.698 2.07 141.385 0 256-114.615 256-256 0-11.076-.704-21.986-2.069-32.691l-105.979-105.979z" fill="#4c404c"/><g><g><circle cx="256" cy="256.003" fill="#f4efea" r="202.793"/><path d="m458.79 256.006c0 63.936-29.595 120.973-75.834 158.137-12.5 10.046-26.215 18.646-40.892 25.533-26.123 12.268-55.301 19.12-86.065 19.12v-405.592c112.004 0 202.791 90.799 202.791 202.802z" fill="#ddd9d4"/><circle cx="256" cy="256.002" fill="#ffc136" r="139.01"/><g><path d="m395.013 256.006c0 76.774-62.239 139.013-139.013 139.013v-278.026c76.774 0 139.013 62.239 139.013 139.013z" fill="#ea990a"/></g><path d="m319.398 256.897 34.714-99.008-99.009 34.713-97.214-34.713 34.713 97.214-34.713 99.008 99.008-34.713 97.215 34.713z" fill="#df4332"/><path d="m330.784 288.769 23.329 65.344-64.93-23.186-32.288-11.525-.895.312v-127.428l33.014-11.576 65.099-22.823-22.966 65.521-11.745 33.487z" fill="#b2352c"/></g><path d="m256 116.994v-.002.002l-.001-.002v.002c-.061.062-69.929 71.545 0 139.01v.001s.001 0 .001-.001c0 0 0 0 .001.001v-.001c69.927-67.464.059-138.947-.001-139.01z" fill="#7de7ff"/><path d="m256 256v-139.01c.06.07 69.93 71.55 0 139.01z" fill="#61c4e2"/><path d="m255.998 395.018v.001-.001l.001.001v-.001c.061-.062 69.929-71.545 0-139.01v-.001s-.001 0-.001.001c0 0 0 0-.001-.001v.001c-69.927 67.465-.06 138.948.001 139.01z" fill="#7de7ff"/><path d="m256 395.02v-139.01c69.93 67.46.06 138.95 0 139.01z" fill="#61c4e2"/><path d="m395.011 256.007h.001-.001l.001-.001h-.001c-.062-.061-71.545-69.929-139.01 0h-.001s0 0 .001.001c0 0-.001 0-.001.001 67.466 69.927 138.948.06 139.011-.001z" fill="#61c4e2"/><path d="m116.987 256.005h-.002.002l-.002.001h.002c.062.061 71.545 69.929 139.01 0h.001s-.001-.001-.001-.001 0 0 .001-.001h-.001c-67.465-69.927-138.948-.059-139.01.001z" fill="#7de7ff"/><ellipse cx="256.001" cy="256.005" fill="#a86958" rx="38.933" ry="38.933" transform="matrix(.325 -.946 .946 .325 -69.332 414.856)"/><g><g><g><path d="m294.935 256.006c0 21.503-17.432 38.934-38.934 38.934v-77.868c21.502 0 38.934 17.431 38.934 38.934z" fill="#8e5547"/></g></g></g></g></g></svg>